  0
SECTION
  2
HEADER
  9
$ACADVER
  1
AC1014
  9
$HANDSEED
  5
FFFF
  9
$MEASUREMENT
 70
     1
  0
ENDSEC
  0
SECTION
  2
TABLES
  0
TABLE
  2
VPORT
  5
8
330
0
100
AcDbSymbolTable
 70
     4
  0
VPORT
  5
2E
330
8
100
AcDbSymbolTableRecord
100
AcDbViewportTableRecord
  2
*ACTIVE
 70
     0
 10
0.0
 20
0.0
 11
1.0
 21
1.0
 12
210.0
 22
148.5
 13
0.0
 23
0.0
 14
10.0
 24
10.0
 15
10.0
 25
10.0
 16
0.0
 26
0.0
 36
1.0
 17
0.0
 27
0.0
 37
0.0
 40
341.0
 41
1.24
 42
50.0
 43
0.0
 44
0.0
 50
0.0
 51
0.0
 71
     0
 72
   100
 73
     1
 74
     3
 75
     0
 76
     0
 77
     0
 78
     0
  0
ENDTAB
  0
TABLE
  2
LTYPE
  5
5
330
0
100
AcDbSymbolTable
 70
     1
  0
LTYPE
  5
14
330
5
100
AcDbSymbolTableRecord
100
AcDbLinetypeTableRecord
  2
BYBLOCK
 70
     0
  3

 72
    65
 73
     0
 40
0.0
  0
LTYPE
  5
15
330
5
100
AcDbSymbolTableRecord
100
AcDbLinetypeTableRecord
  2
BYLAYER
 70
     0
  3

 72
    65
 73
     0
 40
0.0
  0
LTYPE
  5
16
330
5
100
AcDbSymbolTableRecord
100
AcDbLinetypeTableRecord
  2
CONTINUOUS
 70
     0
  3
Solid line
 72
    65
 73
     0
 40
0.0
  0
ENDTAB
  0
TABLE
  2
LAYER
  5
2
100
AcDbSymbolTable
 70
2
  0
LAYER
  5
50
100
AcDbSymbolTableRecord
100
AcDbLayerTableRecord
  2
0
 70
0
  6
CONTINUOUS
  0
LAYER
  5
51
100
AcDbSymbolTableRecord
100
AcDbLayerTableRecord
  2
Layer_1
 70
0
  6
CONTINUOUS
  0
ENDTAB
  0
TABLE
  2
STYLE
  5
3
330
0
100
AcDbSymbolTable
 70
     1
  0
STYLE
  5
11
330
3
100
AcDbSymbolTableRecord
100
AcDbTextStyleTableRecord
  2
STANDARD
 70
     0
 40
0.0
 41
1.0
 50
0.0
 71
     0
 42
2.5
  3
txt
  4

  0
ENDTAB
  0
TABLE
  2
VIEW
  5
6
330
0
100
AcDbSymbolTable
 70
     0
  0
ENDTAB
  0
TABLE
  2
UCS
  5
7
330
0
100
AcDbSymbolTable
 70
     0
  0
ENDTAB
  0
TABLE
  2
APPID
  5
9
330
0
100
AcDbSymbolTable
 70
     2
  0
APPID
  5
12
330
9
100
AcDbSymbolTableRecord
100
AcDbRegAppTableRecord
  2
ACAD
 70
     0
  0
ENDTAB
  0
TABLE
  2
DIMSTYLE
  5
A
330
0
100
AcDbSymbolTable
 70
     1
  0
DIMSTYLE
105
27
330
A
100
AcDbSymbolTableRecord
100
AcDbDimStyleTableRecord
  2
ISO-25
 70
     0
  3

  4

  5

  6

  7

 40
1.0
 41
2.5
 42
0.625
 43
3.75
 44
1.25
 45
0.0
 46
0.0
 47
0.0
 48
0.0
140
2.5
141
2.5
142
0.0
143
0.03937007874016
144
1.0
145
0.0
146
1.0
147
0.625
 71
     0
 72
     0
 73
     0
 74
     0
 75
     0
 76
     0
 77
     1
 78
     8
170
     0
171
     3
172
     1
173
     0
174
     0
175
     0
176
     0
177
     0
178
     0
270
     2
271
     2
272
     2
273
     2
274
     3
340
11
275
     0
280
     0
281
     0
282
     0
283
     0
284
     8
285
     0
286
     0
287
     3
288
     0
  0
ENDTAB
  0
TABLE
  2
BLOCK_RECORD
  5
1
330
0
100
AcDbSymbolTable
 70
     1
  0
BLOCK_RECORD
  5
1F
330
1
100
AcDbSymbolTableRecord
100
AcDbBlockTableRecord
  2
*MODEL_SPACE
  0
BLOCK_RECORD
  5
1B
330
1
100
AcDbSymbolTableRecord
100
AcDbBlockTableRecord
  2
*PAPER_SPACE
  0
ENDTAB
  0
ENDSEC
  0
SECTION
  2
BLOCKS
  0
BLOCK
  5
20
330
1F
100
AcDbEntity
  8
0
100
AcDbBlockBegin
  2
*MODEL_SPACE
 70
     0
 10
0.0
 20
0.0
 30
0.0
  3
*MODEL_SPACE
  1

  0
ENDBLK
  5
21
330
1F
100
AcDbEntity
  8
0
100
AcDbBlockEnd
  0
BLOCK
  5
1C
330
1B
100
AcDbEntity
 67
     1
  8
0
100
AcDbBlockBegin
  2
*PAPER_SPACE
  1

  0
ENDBLK
  5
1D
330
1B
100
AcDbEntity
 67
     1
  8
0
100
AcDbBlockEnd
  0
ENDSEC
  0
SECTION
  2
ENTITIES
  0
SPLINE
  5
100
100
AcDbEntity
  8
Layer_1
 62
7
100
AcDbSpline
 70
8
 71
3
 72
8
 73
4
 74
0
 40
0
 40
0
 40
0
 40
0
 40
1
 40
1
 40
1
 40
1
 10
28.145538
 20
22.645543
 30
0.0
 10
28.145538
 20
22.921686
 30
0.0
 10
27.921680
 20
23.145544
 30
0.0
 10
27.645538
 20
23.145544
 30
0.0
  0
LWPOLYLINE
  5
101
100
AcDbEntity
  8
Layer_1
 62
7
100
AcDbPolyline
 90
2
 70
0
 10
27.645538
 20
23.145544
 30
0.0
 10
2.845515
 20
23.145544
 30
0.0
  0
SPLINE
  5
102
100
AcDbEntity
  8
Layer_1
 62
7
100
AcDbSpline
 70
8
 71
3
 72
8
 73
4
 74
0
 40
0
 40
0
 40
0
 40
0
 40
1
 40
1
 40
1
 40
1
 10
27.658458
 20
18.932938
 30
0.0
 10
27.929476
 20
18.939943
 30
0.0
 10
28.145537
 20
19.161660
 30
0.0
 10
28.145538
 20
19.432769
 30
0.0
  0
LWPOLYLINE
  5
103
100
AcDbEntity
  8
Layer_1
 62
7
100
AcDbPolyline
 90
2
 70
0
 10
28.145538
 20
19.432769
 30
0.0
 10
28.145538
 20
22.645543
 30
0.0
  0
SPLINE
  5
104
100
AcDbEntity
  8
Layer_1
 62
7
100
AcDbSpline
 70
8
 71
3
 72
8
 73
4
 74
0
 40
0
 40
0
 40
0
 40
0
 40
1
 40
1
 40
1
 40
1
 10
22.832611
 20
18.808138
 30
0.0
 10
22.561597
 20
18.801127
 30
0.0
 10
22.345542
 20
18.579412
 30
0.0
 10
22.345540
 20
18.308307
 30
0.0
  0
LWPOLYLINE
  5
105
100
AcDbEntity
  8
Layer_1
 62
7
100
AcDbPolyline
 90
2
 70
0
 10
22.832601
 20
18.808138
 30
0.0
 10
27.658478
 20
18.932938
 30
0.0
  0
SPLINE
  5
106
100
AcDbEntity
  8
Layer_1
 62
7
100
AcDbSpline
 70
8
 71
3
 72
8
 73
4
 74
0
 40
0
 40
0
 40
0
 40
0
 40
1
 40
1
 40
1
 40
1
 10
21.845540
 20
5.145519
 30
0.0
 10
22.121683
 20
5.145519
 30
0.0
 10
22.345540
 20
5.369377
 30
0.0
 10
22.345540
 20
5.645520
 30
0.0
  0
LWPOLYLINE
  5
107
100
AcDbEntity
  8
Layer_1
 62
7
100
AcDbPolyline
 90
2
 70
0
 10
22.345540
 20
5.645520
 30
0.0
 10
22.345540
 20
18.308307
 30
0.0
  0
LWPOLYLINE
  5
108
100
AcDbEntity
  8
Layer_1
 62
7
100
AcDbPolyline
 90
2
 70
0
 10
8.645510
 20
5.145519
 30
0.0
 10
21.845540
 20
5.145519
 30
0.0
  0
LWPOLYLINE
  5
109
100
AcDbEntity
  8
Layer_1
 62
7
100
AcDbPolyline
 90
2
 70
0
 10
19.245536
 20
0.145512
 30
0.0
 10
11.245520
 20
0.145512
 30
0.0
  0
LWPOLYLINE
  5
10a
100
AcDbEntity
  8
Layer_1
 62
7
100
AcDbPolyline
 90
2
 70
0
 10
19.245536
 20
3.145516
 30
0.0
 10
19.245536
 20
0.145512
 30
0.0
  0
SPLINE
  5
10b
100
AcDbEntity
  8
Layer_1
 62
7
100
AcDbSpline
 70
8
 71
3
 72
8
 73
4
 74
0
 40
0
 40
0
 40
0
 40
0
 40
1
 40
1
 40
1
 40
1
 10
27.245547
 20
3.145516
 30
0.0
 10
28.317345
 20
3.145516
 30
0.0
 10
29.307728
 20
3.717314
 30
0.0
 10
29.843627
 20
4.645518
 30
0.0
  0
SPLINE
  5
10c
100
AcDbEntity
  8
Layer_1
 62
7
100
AcDbSpline
 70
8
 71
3
 72
8
 73
4
 74
0
 40
0
 40
0
 40
0
 40
0
 40
1
 40
1
 40
1
 40
1
 10
29.843627
 20
4.645518
 30
0.0
 10
30.379526
 20
5.573723
 30
0.0
 10
30.379526
 20
6.717318
 30
0.0
 10
29.843627
 20
7.645522
 30
0.0
  0
SPLINE
  5
10d
100
AcDbEntity
  8
Layer_1
 62
7
100
AcDbSpline
 70
8
 71
3
 72
8
 73
4
 74
0
 40
0
 40
0
 40
0
 40
0
 40
1
 40
1
 40
1
 40
1
 10
29.843627
 20
7.645522
 30
0.0
 10
29.307728
 20
8.573727
 30
0.0
 10
28.317345
 20
9.145524
 30
0.0
 10
27.245547
 20
9.145524
 30
0.0
  0
LWPOLYLINE
  5
10e
100
AcDbEntity
  8
Layer_1
 62
7
100
AcDbPolyline
 90
2
 70
0
 10
27.245547
 20
3.145516
 30
0.0
 10
19.245536
 20
3.145516
 30
0.0
  0
SPLINE
  5
10f
100
AcDbEntity
  8
Layer_1
 62
7
100
AcDbSpline
 70
8
 71
3
 72
8
 73
4
 74
0
 40
0
 40
0
 40
0
 40
0
 40
1
 40
1
 40
1
 40
1
 10
24.345543
 20
9.645525
 30
0.0
 10
24.345543
 20
9.369382
 30
0.0
 10
24.569401
 20
9.145525
 30
0.0
 10
24.845544
 20
9.145524
 30
0.0
  0
LWPOLYLINE
  5
110
100
AcDbEntity
  8
Layer_1
 62
7
100
AcDbPolyline
 90
2
 70
0
 10
24.845544
 20
9.145524
 30
0.0
 10
27.245547
 20
9.145524
 30
0.0
  0
SPLINE
  5
111
100
AcDbEntity
  8
Layer_1
 62
7
100
AcDbSpline
 70
8
 71
3
 72
8
 73
4
 74
0
 40
0
 40
0
 40
0
 40
0
 40
1
 40
1
 40
1
 40
1
 10
24.845544
 20
17.045535
 30
0.0
 10
24.569401
 20
17.045535
 30
0.0
 10
24.345543
 20
16.821677
 30
0.0
 10
24.345543
 20
16.545535
 30
0.0
  0
LWPOLYLINE
  5
112
100
AcDbEntity
  8
Layer_1
 62
7
100
AcDbPolyline
 90
2
 70
0
 10
24.345543
 20
16.545535
 30
0.0
 10
24.345543
 20
9.645525
 30
0.0
  0
SPLINE
  5
113
100
AcDbEntity
  8
Layer_1
 62
7
100
AcDbSpline
 70
8
 71
3
 72
8
 73
4
 74
0
 40
0
 40
0
 40
0
 40
0
 40
1
 40
1
 40
1
 40
1
 10
29.845551
 20
17.045535
 30
0.0
 10
30.121693
 20
17.045535
 30
0.0
 10
30.345551
 20
17.269393
 30
0.0
 10
30.345551
 20
17.545536
 30
0.0
  0
LWPOLYLINE
  5
114
100
AcDbEntity
  8
Layer_1
 62
7
100
AcDbPolyline
 90
2
 70
0
 10
29.845551
 20
17.045535
 30
0.0
 10
24.845544
 20
17.045535
 30
0.0
  0
SPLINE
  5
115
100
AcDbEntity
  8
Layer_1
 62
7
100
AcDbSpline
 70
8
 71
3
 72
8
 73
4
 74
0
 40
0
 40
0
 40
0
 40
0
 40
1
 40
1
 40
1
 40
1
 10
30.345551
 20
24.545545
 30
0.0
 10
30.345551
 20
24.821688
 30
0.0
 10
30.121693
 20
25.045546
 30
0.0
 10
29.845551
 20
25.045546
 30
0.0
  0
LWPOLYLINE
  5
116
100
AcDbEntity
  8
Layer_1
 62
7
100
AcDbPolyline
 90
2
 70
0
 10
30.345551
 20
24.545545
 30
0.0
 10
30.345551
 20
17.545536
 30
0.0
  0
SPLINE
  5
117
100
AcDbEntity
  8
Layer_1
 62
7
100
AcDbSpline
 70
8
 71
3
 72
8
 73
4
 74
0
 40
0
 40
0
 40
0
 40
0
 40
1
 40
1
 40
1
 40
1
 10
25.745545
 20
25.545547
 30
0.0
 10
25.745545
 20
25.269408
 30
0.0
 10
25.969397
 20
25.045552
 30
0.0
 10
26.245536
 20
25.045546
 30
0.0
  0
LWPOLYLINE
  5
118
100
AcDbEntity
  8
Layer_1
 62
7
100
AcDbPolyline
 90
2
 70
0
 10
26.245536
 20
25.045546
 30
0.0
 10
29.845551
 20
25.045546
 30
0.0
  0
SPLINE
  5
119
100
AcDbEntity
  8
Layer_1
 62
7
100
AcDbSpline
 70
8
 71
3
 72
8
 73
4
 74
0
 40
0
 40
0
 40
0
 40
0
 40
1
 40
1
 40
1
 40
1
 10
25.745545
 20
27.645550
 30
0.0
 10
25.745545
 20
28.441202
 30
0.0
 10
25.429473
 20
29.204266
 30
0.0
 10
24.866861
 20
29.766876
 30
0.0
  0
SPLINE
  5
11a
100
AcDbEntity
  8
Layer_1
 62
7
100
AcDbSpline
 70
8
 71
3
 72
8
 73
4
 74
0
 40
0
 40
0
 40
0
 40
0
 40
1
 40
1
 40
1
 40
1
 10
24.866861
 20
29.766876
 30
0.0
 10
24.304249
 20
30.329487
 30
0.0
 10
23.541183
 20
30.645556
 30
0.0
 10
22.745531
 20
30.645554
 30
0.0
  0
LWPOLYLINE
  5
11b
100
AcDbEntity
  8
Layer_1
 62
7
100
AcDbPolyline
 90
2
 70
0
 10
25.745545
 20
27.645550
 30
0.0
 10
25.745545
 20
25.545547
 30
0.0
  0
SPLINE
  5
11c
100
AcDbEntity
  8
Layer_1
 62
7
100
AcDbSpline
 70
8
 71
3
 72
8
 73
4
 74
0
 40
0
 40
0
 40
0
 40
0
 40
1
 40
1
 40
1
 40
1
 10
28.745539
 20
6.145520
 30
0.0
 10
28.746925
 20
6.682340
 30
0.0
 10
28.461331
 20
7.178976
 30
0.0
 10
27.996661
 20
7.447787
 30
0.0
  0
SPLINE
  5
11d
100
AcDbEntity
  8
Layer_1
 62
7
100
AcDbSpline
 70
8
 71
3
 72
8
 73
4
 74
0
 40
0
 40
0
 40
0
 40
0
 40
1
 40
1
 40
1
 40
1
 10
27.996661
 20
7.447787
 30
0.0
 10
27.531991
 20
7.716598
 30
0.0
 10
26.959093
 20
7.716598
 30
0.0
 10
26.494423
 20
7.447787
 30
0.0
  0
SPLINE
  5
11e
100
AcDbEntity
  8
Layer_1
 62
7
100
AcDbSpline
 70
8
 71
3
 72
8
 73
4
 74
0
 40
0
 40
0
 40
0
 40
0
 40
1
 40
1
 40
1
 40
1
 10
26.494423
 20
7.447787
 30
0.0
 10
26.029753
 20
7.178976
 30
0.0
 10
25.744159
 20
6.682340
 30
0.0
 10
25.745545
 20
6.145520
 30
0.0
  0
SPLINE
  5
11f
100
AcDbEntity
  8
Layer_1
 62
7
100
AcDbSpline
 70
8
 71
3
 72
8
 73
4
 74
0
 40
0
 40
0
 40
0
 40
0
 40
1
 40
1
 40
1
 40
1
 10
25.745545
 20
6.145520
 30
0.0
 10
25.744159
 20
5.608700
 30
0.0
 10
26.029753
 20
5.112064
 30
0.0
 10
26.494423
 20
4.843253
 30
0.0
  0
SPLINE
  5
120
100
AcDbEntity
  8
Layer_1
 62
7
100
AcDbSpline
 70
8
 71
3
 72
8
 73
4
 74
0
 40
0
 40
0
 40
0
 40
0
 40
1
 40
1
 40
1
 40
1
 10
26.494423
 20
4.843253
 30
0.0
 10
26.959093
 20
4.574443
 30
0.0
 10
27.531991
 20
4.574443
 30
0.0
 10
27.996661
 20
4.843253
 30
0.0
  0
SPLINE
  5
121
100
AcDbEntity
  8
Layer_1
 62
7
100
AcDbSpline
 70
8
 71
3
 72
8
 73
4
 74
0
 40
0
 40
0
 40
0
 40
0
 40
1
 40
1
 40
1
 40
1
 10
27.996661
 20
4.843253
 30
0.0
 10
28.461331
 20
5.112064
 30
0.0
 10
28.746925
 20
5.608700
 30
0.0
 10
28.745539
 20
6.145520
 30
0.0
  0
LWPOLYLINE
  5
122
100
AcDbEntity
  8
Layer_1
 62
7
100
AcDbPolyline
 90
2
 70
0
 10
7.745516
 20
30.645554
 30
0.0
 10
22.745531
 20
30.645554
 30
0.0
  0
SPLINE
  5
123
100
AcDbEntity
  8
Layer_1
 62
7
100
AcDbSpline
 70
8
 71
3
 72
8
 73
4
 74
0
 40
0
 40
0
 40
0
 40
0
 40
1
 40
1
 40
1
 40
1
 10
24.245543
 20
27.645550
 30
0.0
 10
24.245543
 20
28.181451
 30
0.0
 10
23.959643
 20
28.676643
 30
0.0
 10
23.495540
 20
28.944594
 30
0.0
  0
SPLINE
  5
124
100
AcDbEntity
  8
Layer_1
 62
7
100
AcDbSpline
 70
8
 71
3
 72
8
 73
4
 74
0
 40
0
 40
0
 40
0
 40
0
 40
1
 40
1
 40
1
 40
1
 10
23.495540
 20
28.944594
 30
0.0
 10
23.031436
 20
29.212544
 30
0.0
 10
22.459636
 20
29.212544
 30
0.0
 10
21.995533
 20
28.944594
 30
0.0
  0
SPLINE
  5
125
100
AcDbEntity
  8
Layer_1
 62
7
100
AcDbSpline
 70
8
 71
3
 72
8
 73
4
 74
0
 40
0
 40
0
 40
0
 40
0
 40
1
 40
1
 40
1
 40
1
 10
21.995533
 20
28.944594
 30
0.0
 10
21.531429
 20
28.676643
 30
0.0
 10
21.245529
 20
28.181451
 30
0.0
 10
21.245529
 20
27.645550
 30
0.0
  0
SPLINE
  5
126
100
AcDbEntity
  8
Layer_1
 62
7
100
AcDbSpline
 70
8
 71
3
 72
8
 73
4
 74
0
 40
0
 40
0
 40
0
 40
0
 40
1
 40
1
 40
1
 40
1
 10
21.245529
 20
27.645550
 30
0.0
 10
21.245529
 20
27.109649
 30
0.0
 10
21.531429
 20
26.614456
 30
0.0
 10
21.995533
 20
26.346506
 30
0.0
  0
SPLINE
  5
127
100
AcDbEntity
  8
Layer_1
 62
7
100
AcDbSpline
 70
8
 71
3
 72
8
 73
4
 74
0
 40
0
 40
0
 40
0
 40
0
 40
1
 40
1
 40
1
 40
1
 10
21.995533
 20
26.346506
 30
0.0
 10
22.459636
 20
26.078555
 30
0.0
 10
23.031436
 20
26.078555
 30
0.0
 10
23.495540
 20
26.346506
 30
0.0
  0
SPLINE
  5
128
100
AcDbEntity
  8
Layer_1
 62
7
100
AcDbSpline
 70
8
 71
3
 72
8
 73
4
 74
0
 40
0
 40
0
 40
0
 40
0
 40
1
 40
1
 40
1
 40
1
 10
23.495540
 20
26.346506
 30
0.0
 10
23.959643
 20
26.614456
 30
0.0
 10
24.245543
 20
27.109649
 30
0.0
 10
24.245543
 20
27.645550
 30
0.0
  0
LWPOLYLINE
  5
129
100
AcDbEntity
  8
Layer_1
 62
7
100
AcDbPolyline
 90
1
 70
1
 10
28.745539
 20
6.145520
 30
0.0
  0
SPLINE
  5
12a
100
AcDbEntity
  8
Layer_1
 62
7
100
AcDbSpline
 70
8
 71
3
 72
8
 73
4
 74
0
 40
0
 40
0
 40
0
 40
0
 40
1
 40
1
 40
1
 40
1
 10
5.645507
 20
9.145524
 30
0.0
 10
5.921649
 20
9.145525
 30
0.0
 10
6.145506
 20
9.369383
 30
0.0
 10
6.145506
 20
9.645525
 30
0.0
  0
LWPOLYLINE
  5
12b
100
AcDbEntity
  8
Layer_1
 62
7
100
AcDbPolyline
 90
1
 70
1
 10
24.245543
 20
27.645550
 30
0.0
  0
SPLINE
  5
12c
100
AcDbEntity
  8
Layer_1
 62
7
100
AcDbSpline
 70
8
 71
3
 72
8
 73
4
 74
0
 40
0
 40
0
 40
0
 40
0
 40
1
 40
1
 40
1
 40
1
 10
3.245510
 20
9.145524
 30
0.0
 10
2.173712
 20
9.145524
 30
0.0
 10
1.183330
 20
8.573727
 30
0.0
 10
0.647431
 20
7.645522
 30
0.0
  0
SPLINE
  5
12d
100
AcDbEntity
  8
Layer_1
 62
7
100
AcDbSpline
 70
8
 71
3
 72
8
 73
4
 74
0
 40
0
 40
0
 40
0
 40
0
 40
1
 40
1
 40
1
 40
1
 10
0.647431
 20
7.645522
 30
0.0
 10
0.111532
 20
6.717318
 30
0.0
 10
0.111532
 20
5.573723
 30
0.0
 10
0.647431
 20
4.645518
 30
0.0
  0
SPLINE
  5
12e
100
AcDbEntity
  8
Layer_1
 62
7
100
AcDbSpline
 70
8
 71
3
 72
8
 73
4
 74
0
 40
0
 40
0
 40
0
 40
0
 40
1
 40
1
 40
1
 40
1
 10
0.647431
 20
4.645518
 30
0.0
 10
1.183330
 20
3.717314
 30
0.0
 10
2.173712
 20
3.145516
 30
0.0
 10
3.245510
 20
3.145516
 30
0.0
  0
LWPOLYLINE
  5
12f
100
AcDbEntity
  8
Layer_1
 62
7
100
AcDbPolyline
 90
2
 70
0
 10
3.245510
 20
9.145524
 30
0.0
 10
5.645507
 20
9.145524
 30
0.0
  0
LWPOLYLINE
  5
130
100
AcDbEntity
  8
Layer_1
 62
7
100
AcDbPolyline
 90
2
 70
0
 10
11.245520
 20
3.145516
 30
0.0
 10
3.245510
 20
3.145516
 30
0.0
  0
SPLINE
  5
131
100
AcDbEntity
  8
Layer_1
 62
7
100
AcDbSpline
 70
8
 71
3
 72
8
 73
4
 74
0
 40
0
 40
0
 40
0
 40
0
 40
1
 40
1
 40
1
 40
1
 10
7.745516
 20
30.645554
 30
0.0
 10
6.949865
 20
30.645554
 30
0.0
 10
6.186802
 20
30.329483
 30
0.0
 10
5.624192
 20
29.766873
 30
0.0
  0
SPLINE
  5
132
100
AcDbEntity
  8
Layer_1
 62
7
100
AcDbSpline
 70
8
 71
3
 72
8
 73
4
 74
0
 40
0
 40
0
 40
0
 40
0
 40
1
 40
1
 40
1
 40
1
 10
5.624192
 20
29.766873
 30
0.0
 10
5.061582
 20
29.204263
 30
0.0
 10
4.745511
 20
28.441200
 30
0.0
 10
4.745511
 20
27.645550
 30
0.0
  0
LWPOLYLINE
  5
133
100
AcDbEntity
  8
Layer_1
 62
7
100
AcDbPolyline
 90
2
 70
0
 10
11.245520
 20
3.145516
 30
0.0
 10
11.245520
 20
0.145512
 30
0.0
  0
SPLINE
  5
134
100
AcDbEntity
  8
Layer_1
 62
7
100
AcDbSpline
 70
8
 71
3
 72
8
 73
4
 74
0
 40
0
 40
0
 40
0
 40
0
 40
1
 40
1
 40
1
 40
1
 10
4.245512
 20
25.045546
 30
0.0
 10
4.521654
 20
25.045547
 30
0.0
 10
4.745511
 20
25.269404
 30
0.0
 10
4.745511
 20
25.545547
 30
0.0
  0
LWPOLYLINE
  5
135
100
AcDbEntity
  8
Layer_1
 62
7
100
AcDbPolyline
 90
2
 70
0
 10
4.745511
 20
27.645550
 30
0.0
 10
4.745511
 20
25.545547
 30
0.0
  0
SPLINE
  5
136
100
AcDbEntity
  8
Layer_1
 62
7
100
AcDbSpline
 70
8
 71
3
 72
8
 73
4
 74
0
 40
0
 40
0
 40
0
 40
0
 40
1
 40
1
 40
1
 40
1
 10
0.645499
 20
25.045546
 30
0.0
 10
0.369357
 20
25.045546
 30
0.0
 10
0.145499
 20
24.821688
 30
0.0
 10
0.145499
 20
24.545545
 30
0.0
  0
LWPOLYLINE
  5
137
100
AcDbEntity
  8
Layer_1
 62
7
100
AcDbPolyline
 90
2
 70
0
 10
0.645499
 20
25.045546
 30
0.0
 10
4.245512
 20
25.045546
 30
0.0
  0
SPLINE
  5
138
100
AcDbEntity
  8
Layer_1
 62
7
100
AcDbSpline
 70
8
 71
3
 72
8
 73
4
 74
0
 40
0
 40
0
 40
0
 40
0
 40
1
 40
1
 40
1
 40
1
 10
0.145499
 20
17.545536
 30
0.0
 10
0.145499
 20
17.269394
 30
0.0
 10
0.369357
 20
17.045536
 30
0.0
 10
0.645499
 20
17.045535
 30
0.0
  0
LWPOLYLINE
  5
139
100
AcDbEntity
  8
Layer_1
 62
7
100
AcDbPolyline
 90
2
 70
0
 10
0.145499
 20
24.545545
 30
0.0
 10
0.145499
 20
17.545536
 30
0.0
  0
SPLINE
  5
13a
100
AcDbEntity
  8
Layer_1
 62
7
100
AcDbSpline
 70
8
 71
3
 72
8
 73
4
 74
0
 40
0
 40
0
 40
0
 40
0
 40
1
 40
1
 40
1
 40
1
 10
6.145506
 20
16.545535
 30
0.0
 10
6.145506
 20
16.821677
 30
0.0
 10
5.921649
 20
17.045535
 30
0.0
 10
5.645507
 20
17.045535
 30
0.0
  0
LWPOLYLINE
  5
13b
100
AcDbEntity
  8
Layer_1
 62
7
100
AcDbPolyline
 90
2
 70
0
 10
5.645507
 20
17.045535
 30
0.0
 10
0.645499
 20
17.045535
 30
0.0
  0
SPLINE
  5
13c
100
AcDbEntity
  8
Layer_1
 62
7
100
AcDbSpline
 70
8
 71
3
 72
8
 73
4
 74
0
 40
0
 40
0
 40
0
 40
0
 40
1
 40
1
 40
1
 40
1
 10
9.245517
 20
27.645550
 30
0.0
 10
9.245954
 20
28.181740
 30
0.0
 10
8.960152
 20
28.677388
 30
0.0
 10
8.495870
 20
28.945610
 30
0.0
  0
SPLINE
  5
13d
100
AcDbEntity
  8
Layer_1
 62
7
100
AcDbSpline
 70
8
 71
3
 72
8
 73
4
 74
0
 40
0
 40
0
 40
0
 40
0
 40
1
 40
1
 40
1
 40
1
 10
8.495870
 20
28.945610
 30
0.0
 10
8.031588
 20
29.213832
 30
0.0
 10
7.459442
 20
29.213832
 30
0.0
 10
6.995161
 20
28.945610
 30
0.0
  0
SPLINE
  5
13e
100
AcDbEntity
  8
Layer_1
 62
7
100
AcDbSpline
 70
8
 71
3
 72
8
 73
4
 74
0
 40
0
 40
0
 40
0
 40
0
 40
1
 40
1
 40
1
 40
1
 10
6.995161
 20
28.945610
 30
0.0
 10
6.530879
 20
28.677388
 30
0.0
 10
6.245076
 20
28.181740
 30
0.0
 10
6.245514
 20
27.645550
 30
0.0
  0
SPLINE
  5
13f
100
AcDbEntity
  8
Layer_1
 62
7
100
AcDbSpline
 70
8
 71
3
 72
8
 73
4
 74
0
 40
0
 40
0
 40
0
 40
0
 40
1
 40
1
 40
1
 40
1
 10
6.245514
 20
27.645550
 30
0.0
 10
6.245076
 20
27.109359
 30
0.0
 10
6.530879
 20
26.613711
 30
0.0
 10
6.995161
 20
26.345489
 30
0.0
  0
SPLINE
  5
140
100
AcDbEntity
  8
Layer_1
 62
7
100
AcDbSpline
 70
8
 71
3
 72
8
 73
4
 74
0
 40
0
 40
0
 40
0
 40
0
 40
1
 40
1
 40
1
 40
1
 10
6.995161
 20
26.345489
 30
0.0
 10
7.459442
 20
26.077267
 30
0.0
 10
8.031588
 20
26.077267
 30
0.0
 10
8.495870
 20
26.345489
 30
0.0
  0
SPLINE
  5
141
100
AcDbEntity
  8
Layer_1
 62
7
100
AcDbSpline
 70
8
 71
3
 72
8
 73
4
 74
0
 40
0
 40
0
 40
0
 40
0
 40
1
 40
1
 40
1
 40
1
 10
8.495870
 20
26.345489
 30
0.0
 10
8.960152
 20
26.613711
 30
0.0
 10
9.245954
 20
27.109359
 30
0.0
 10
9.245517
 20
27.645550
 30
0.0
  0
LWPOLYLINE
  5
142
100
AcDbEntity
  8
Layer_1
 62
7
100
AcDbPolyline
 90
2
 70
0
 10
6.145506
 20
16.545535
 30
0.0
 10
6.145506
 20
9.645525
 30
0.0
  0
SPLINE
  5
143
100
AcDbEntity
  8
Layer_1
 62
7
100
AcDbSpline
 70
8
 71
3
 72
8
 73
4
 74
0
 40
0
 40
0
 40
0
 40
0
 40
1
 40
1
 40
1
 40
1
 10
8.145510
 20
5.645520
 30
0.0
 10
8.145510
 20
5.369377
 30
0.0
 10
8.369367
 20
5.145520
 30
0.0
 10
8.645510
 20
5.145519
 30
0.0
  0
LWPOLYLINE
  5
144
100
AcDbEntity
  8
Layer_1
 62
7
100
AcDbPolyline
 90
1
 70
1
 10
9.245517
 20
27.645550
 30
0.0
  0
SPLINE
  5
145
100
AcDbEntity
  8
Layer_1
 62
7
100
AcDbSpline
 70
8
 71
3
 72
8
 73
4
 74
0
 40
0
 40
0
 40
0
 40
0
 40
1
 40
1
 40
1
 40
1
 10
8.145510
 20
18.308307
 30
0.0
 10
8.145509
 20
18.579414
 30
0.0
 10
7.929451
 20
18.801129
 30
0.0
 10
7.658435
 20
18.808138
 30
0.0
  0
LWPOLYLINE
  5
146
100
AcDbEntity
  8
Layer_1
 62
7
100
AcDbPolyline
 90
2
 70
0
 10
8.145510
 20
5.645520
 30
0.0
 10
8.145510
 20
18.308307
 30
0.0
  0
SPLINE
  5
147
100
AcDbEntity
  8
Layer_1
 62
7
100
AcDbSpline
 70
8
 71
3
 72
8
 73
4
 74
0
 40
0
 40
0
 40
0
 40
0
 40
1
 40
1
 40
1
 40
1
 10
2.345515
 20
19.432769
 30
0.0
 10
2.345517
 20
19.161663
 30
0.0
 10
2.561573
 20
18.939948
 30
0.0
 10
2.832588
 20
18.932938
 30
0.0
  0
LWPOLYLINE
  5
148
100
AcDbEntity
  8
Layer_1
 62
7
100
AcDbPolyline
 90
2
 70
0
 10
7.658448
 20
18.808138
 30
0.0
 10
2.832574
 20
18.932938
 30
0.0
  0
SPLINE
  5
149
100
AcDbEntity
  8
Layer_1
 62
7
100
AcDbSpline
 70
8
 71
3
 72
8
 73
4
 74
0
 40
0
 40
0
 40
0
 40
0
 40
1
 40
1
 40
1
 40
1
 10
2.845515
 20
23.145544
 30
0.0
 10
2.569373
 20
23.145543
 30
0.0
 10
2.345515
 20
22.921685
 30
0.0
 10
2.345515
 20
22.645543
 30
0.0
  0
SPLINE
  5
14a
100
AcDbEntity
  8
Layer_1
 62
7
100
AcDbSpline
 70
8
 71
3
 72
8
 73
4
 74
0
 40
0
 40
0
 40
0
 40
0
 40
1
 40
1
 40
1
 40
1
 10
4.745511
 20
6.145520
 30
0.0
 10
4.745949
 20
6.681711
 30
0.0
 10
4.460146
 20
7.177359
 30
0.0
 10
3.995864
 20
7.445581
 30
0.0
  0
SPLINE
  5
14b
100
AcDbEntity
  8
Layer_1
 62
7
100
AcDbSpline
 70
8
 71
3
 72
8
 73
4
 74
0
 40
0
 40
0
 40
0
 40
0
 40
1
 40
1
 40
1
 40
1
 10
3.995864
 20
7.445581
 30
0.0
 10
3.531583
 20
7.713803
 30
0.0
 10
2.959437
 20
7.713803
 30
0.0
 10
2.495155
 20
7.445581
 30
0.0
  0
SPLINE
  5
14c
100
AcDbEntity
  8
Layer_1
 62
7
100
AcDbSpline
 70
8
 71
3
 72
8
 73
4
 74
0
 40
0
 40
0
 40
0
 40
0
 40
1
 40
1
 40
1
 40
1
 10
2.495155
 20
7.445581
 30
0.0
 10
2.030873
 20
7.177359
 30
0.0
 10
1.745071
 20
6.681711
 30
0.0
 10
1.745508
 20
6.145520
 30
0.0
  0
SPLINE
  5
14d
100
AcDbEntity
  8
Layer_1
 62
7
100
AcDbSpline
 70
8
 71
3
 72
8
 73
4
 74
0
 40
0
 40
0
 40
0
 40
0
 40
1
 40
1
 40
1
 40
1
 10
1.745508
 20
6.145520
 30
0.0
 10
1.745071
 20
5.609330
 30
0.0
 10
2.030873
 20
5.113682
 30
0.0
 10
2.495155
 20
4.845460
 30
0.0
  0
SPLINE
  5
14e
100
AcDbEntity
  8
Layer_1
 62
7
100
AcDbSpline
 70
8
 71
3
 72
8
 73
4
 74
0
 40
0
 40
0
 40
0
 40
0
 40
1
 40
1
 40
1
 40
1
 10
2.495155
 20
4.845460
 30
0.0
 10
2.959437
 20
4.577238
 30
0.0
 10
3.531583
 20
4.577238
 30
0.0
 10
3.995864
 20
4.845460
 30
0.0
  0
SPLINE
  5
14f
100
AcDbEntity
  8
Layer_1
 62
7
100
AcDbSpline
 70
8
 71
3
 72
8
 73
4
 74
0
 40
0
 40
0
 40
0
 40
0
 40
1
 40
1
 40
1
 40
1
 10
3.995864
 20
4.845460
 30
0.0
 10
4.460146
 20
5.113682
 30
0.0
 10
4.745949
 20
5.609330
 30
0.0
 10
4.745511
 20
6.145520
 30
0.0
  0
LWPOLYLINE
  5
150
100
AcDbEntity
  8
Layer_1
 62
7
100
AcDbPolyline
 90
2
 70
0
 10
2.345515
 20
19.432769
 30
0.0
 10
2.345515
 20
22.645543
 30
0.0
  0
LWPOLYLINE
  5
151
100
AcDbEntity
  8
Layer_1
 62
7
100
AcDbPolyline
 90
1
 70
1
 10
4.745511
 20
6.145520
 30
0.0
  0
ENDSEC
  0
SECTION
  2
OBJECTS
  0
DICTIONARY
  5
C
330
0
100
AcDbDictionary
  3
ACAD_GROUP
350
D
  3
ACAD_MLINESTYLE
350
17
  0
DICTIONARY
  5
D
330
C
100
AcDbDictionary
  0
DICTIONARY
  5
1A
330
C
100
AcDbDictionary
  0
DICTIONARY
  5
17
330
C
100
AcDbDictionary
  3
STANDARD
350
18
  0
DICTIONARY
  5
19
330
C
100
AcDbDictionary
  0
ENDSEC
  0
EOF
