  0
SECTION
  2
HEADER
  9
$ACADVER
  1
AC1014
  9
$HANDSEED
  5
FFFF
  9
$MEASUREMENT
 70
     1
  0
ENDSEC
  0
SECTION
  2
TABLES
  0
TABLE
  2
VPORT
  5
8
330
0
100
AcDbSymbolTable
 70
     4
  0
VPORT
  5
2E
330
8
100
AcDbSymbolTableRecord
100
AcDbViewportTableRecord
  2
*ACTIVE
 70
     0
 10
0.0
 20
0.0
 11
1.0
 21
1.0
 12
210.0
 22
148.5
 13
0.0
 23
0.0
 14
10.0
 24
10.0
 15
10.0
 25
10.0
 16
0.0
 26
0.0
 36
1.0
 17
0.0
 27
0.0
 37
0.0
 40
341.0
 41
1.24
 42
50.0
 43
0.0
 44
0.0
 50
0.0
 51
0.0
 71
     0
 72
   100
 73
     1
 74
     3
 75
     0
 76
     0
 77
     0
 78
     0
  0
ENDTAB
  0
TABLE
  2
LTYPE
  5
5
330
0
100
AcDbSymbolTable
 70
     1
  0
LTYPE
  5
14
330
5
100
AcDbSymbolTableRecord
100
AcDbLinetypeTableRecord
  2
BYBLOCK
 70
     0
  3

 72
    65
 73
     0
 40
0.0
  0
LTYPE
  5
15
330
5
100
AcDbSymbolTableRecord
100
AcDbLinetypeTableRecord
  2
BYLAYER
 70
     0
  3

 72
    65
 73
     0
 40
0.0
  0
LTYPE
  5
16
330
5
100
AcDbSymbolTableRecord
100
AcDbLinetypeTableRecord
  2
CONTINUOUS
 70
     0
  3
Solid line
 72
    65
 73
     0
 40
0.0
  0
ENDTAB
  0
TABLE
  2
LAYER
  5
2
100
AcDbSymbolTable
 70
2
  0
LAYER
  5
50
100
AcDbSymbolTableRecord
100
AcDbLayerTableRecord
  2
0
 70
0
  6
CONTINUOUS
  0
LAYER
  5
51
100
AcDbSymbolTableRecord
100
AcDbLayerTableRecord
  2
Layer_1
 70
0
  6
CONTINUOUS
  0
ENDTAB
  0
TABLE
  2
STYLE
  5
3
330
0
100
AcDbSymbolTable
 70
     1
  0
STYLE
  5
11
330
3
100
AcDbSymbolTableRecord
100
AcDbTextStyleTableRecord
  2
STANDARD
 70
     0
 40
0.0
 41
1.0
 50
0.0
 71
     0
 42
2.5
  3
txt
  4

  0
ENDTAB
  0
TABLE
  2
VIEW
  5
6
330
0
100
AcDbSymbolTable
 70
     0
  0
ENDTAB
  0
TABLE
  2
UCS
  5
7
330
0
100
AcDbSymbolTable
 70
     0
  0
ENDTAB
  0
TABLE
  2
APPID
  5
9
330
0
100
AcDbSymbolTable
 70
     2
  0
APPID
  5
12
330
9
100
AcDbSymbolTableRecord
100
AcDbRegAppTableRecord
  2
ACAD
 70
     0
  0
ENDTAB
  0
TABLE
  2
DIMSTYLE
  5
A
330
0
100
AcDbSymbolTable
 70
     1
  0
DIMSTYLE
105
27
330
A
100
AcDbSymbolTableRecord
100
AcDbDimStyleTableRecord
  2
ISO-25
 70
     0
  3

  4

  5

  6

  7

 40
1.0
 41
2.5
 42
0.625
 43
3.75
 44
1.25
 45
0.0
 46
0.0
 47
0.0
 48
0.0
140
2.5
141
2.5
142
0.0
143
0.03937007874016
144
1.0
145
0.0
146
1.0
147
0.625
 71
     0
 72
     0
 73
     0
 74
     0
 75
     0
 76
     0
 77
     1
 78
     8
170
     0
171
     3
172
     1
173
     0
174
     0
175
     0
176
     0
177
     0
178
     0
270
     2
271
     2
272
     2
273
     2
274
     3
340
11
275
     0
280
     0
281
     0
282
     0
283
     0
284
     8
285
     0
286
     0
287
     3
288
     0
  0
ENDTAB
  0
TABLE
  2
BLOCK_RECORD
  5
1
330
0
100
AcDbSymbolTable
 70
     1
  0
BLOCK_RECORD
  5
1F
330
1
100
AcDbSymbolTableRecord
100
AcDbBlockTableRecord
  2
*MODEL_SPACE
  0
BLOCK_RECORD
  5
1B
330
1
100
AcDbSymbolTableRecord
100
AcDbBlockTableRecord
  2
*PAPER_SPACE
  0
ENDTAB
  0
ENDSEC
  0
SECTION
  2
BLOCKS
  0
BLOCK
  5
20
330
1F
100
AcDbEntity
  8
0
100
AcDbBlockBegin
  2
*MODEL_SPACE
 70
     0
 10
0.0
 20
0.0
 30
0.0
  3
*MODEL_SPACE
  1

  0
ENDBLK
  5
21
330
1F
100
AcDbEntity
  8
0
100
AcDbBlockEnd
  0
BLOCK
  5
1C
330
1B
100
AcDbEntity
 67
     1
  8
0
100
AcDbBlockBegin
  2
*PAPER_SPACE
  1

  0
ENDBLK
  5
1D
330
1B
100
AcDbEntity
 67
     1
  8
0
100
AcDbBlockEnd
  0
ENDSEC
  0
SECTION
  2
ENTITIES
  0
SPLINE
  5
100
100
AcDbEntity
  8
Layer_1
 62
7
100
AcDbSpline
 70
8
 71
3
 72
8
 73
4
 74
0
 40
0
 40
0
 40
0
 40
0
 40
1
 40
1
 40
1
 40
1
 10
22.539782
 20
30.811986
 30
0.0
 10
22.602815
 20
30.784493
 30
0.0
 10
22.670841
 20
30.770297
 30
0.0
 10
22.739609
 20
30.770286
 30
0.0
  0
SPLINE
  5
101
100
AcDbEntity
  8
Layer_1
 62
7
100
AcDbSpline
 70
8
 71
3
 72
8
 73
4
 74
0
 40
0
 40
0
 40
0
 40
0
 40
1
 40
1
 40
1
 40
1
 10
22.539782
 20
30.811986
 30
0.0
 10
18.462168
 20
32.589764
 30
0.0
 10
13.828515
 20
32.589764
 30
0.0
 10
9.750901
 20
30.811986
 30
0.0
  0
SPLINE
  5
102
100
AcDbEntity
  8
Layer_1
 62
7
100
AcDbSpline
 70
8
 71
3
 72
8
 73
4
 74
0
 40
0
 40
0
 40
0
 40
0
 40
1
 40
1
 40
1
 40
1
 10
30.145337
 20
16.145320
 30
0.0
 10
30.145337
 20
21.147037
 30
0.0
 10
27.476953
 20
25.768814
 30
0.0
 10
23.145339
 20
28.269673
 30
0.0
  0
SPLINE
  5
103
100
AcDbEntity
  8
Layer_1
 62
7
100
AcDbSpline
 70
8
 71
3
 72
8
 73
4
 74
0
 40
0
 40
0
 40
0
 40
0
 40
1
 40
1
 40
1
 40
1
 10
23.145339
 20
28.269673
 30
0.0
 10
18.813725
 20
30.770531
 30
0.0
 10
13.476956
 20
30.770531
 30
0.0
 10
9.145342
 20
28.269673
 30
0.0
  0
SPLINE
  5
104
100
AcDbEntity
  8
Layer_1
 62
7
100
AcDbSpline
 70
8
 71
3
 72
8
 73
4
 74
0
 40
0
 40
0
 40
0
 40
0
 40
1
 40
1
 40
1
 40
1
 10
9.145342
 20
28.269673
 30
0.0
 10
4.813728
 20
25.768814
 30
0.0
 10
2.145344
 20
21.147037
 30
0.0
 10
2.145344
 20
16.145320
 30
0.0
  0
SPLINE
  5
105
100
AcDbEntity
  8
Layer_1
 62
7
100
AcDbSpline
 70
8
 71
3
 72
8
 73
4
 74
0
 40
0
 40
0
 40
0
 40
0
 40
1
 40
1
 40
1
 40
1
 10
2.145344
 20
16.145320
 30
0.0
 10
2.145344
 20
11.143602
 30
0.0
 10
4.813728
 20
6.521825
 30
0.0
 10
9.145342
 20
4.020966
 30
0.0
  0
SPLINE
  5
106
100
AcDbEntity
  8
Layer_1
 62
7
100
AcDbSpline
 70
8
 71
3
 72
8
 73
4
 74
0
 40
0
 40
0
 40
0
 40
0
 40
1
 40
1
 40
1
 40
1
 10
9.145342
 20
4.020966
 30
0.0
 10
13.476956
 20
1.520108
 30
0.0
 10
18.813725
 20
1.520108
 30
0.0
 10
23.145339
 20
4.020966
 30
0.0
  0
SPLINE
  5
107
100
AcDbEntity
  8
Layer_1
 62
7
100
AcDbSpline
 70
8
 71
3
 72
8
 73
4
 74
0
 40
0
 40
0
 40
0
 40
0
 40
1
 40
1
 40
1
 40
1
 10
23.145339
 20
4.020966
 30
0.0
 10
27.476953
 20
6.521825
 30
0.0
 10
30.145337
 20
11.143602
 30
0.0
 10
30.145337
 20
16.145320
 30
0.0
  0
LWPOLYLINE
  5
108
100
AcDbEntity
  8
Layer_1
 62
7
100
AcDbPolyline
 90
2
 70
0
 10
22.739609
 20
30.770326
 30
0.0
 10
27.645337
 20
30.770326
 30
0.0
  0
SPLINE
  5
109
100
AcDbEntity
  8
Layer_1
 62
7
100
AcDbSpline
 70
8
 71
3
 72
8
 73
4
 74
0
 40
0
 40
0
 40
0
 40
0
 40
1
 40
1
 40
1
 40
1
 10
29.432278
 20
7.231451
 30
0.0
 10
33.049687
 20
12.623530
 30
0.0
 10
33.049687
 20
19.667119
 30
0.0
 10
29.432278
 20
25.059198
 30
0.0
  0
SPLINE
  5
10a
100
AcDbEntity
  8
Layer_1
 62
7
100
AcDbSpline
 70
8
 71
3
 72
8
 73
4
 74
0
 40
0
 40
0
 40
0
 40
0
 40
1
 40
1
 40
1
 40
1
 10
29.521249
 20
25.716657
 30
0.0
 10
29.329525
 20
25.551577
 30
0.0
 10
29.291326
 20
25.269298
 30
0.0
 10
29.432279
 20
25.059198
 30
0.0
  0
SPLINE
  5
10b
100
AcDbEntity
  8
Layer_1
 62
7
100
AcDbSpline
 70
8
 71
3
 72
8
 73
4
 74
0
 40
0
 40
0
 40
0
 40
0
 40
1
 40
1
 40
1
 40
1
 10
29.521249
 20
25.716657
 30
0.0
 10
30.432078
 20
26.500911
 30
0.0
 10
30.758915
 20
27.769001
 30
0.0
 10
30.340643
 20
28.895817
 30
0.0
  0
SPLINE
  5
10c
100
AcDbEntity
  8
Layer_1
 62
7
100
AcDbSpline
 70
8
 71
3
 72
8
 73
4
 74
0
 40
0
 40
0
 40
0
 40
0
 40
1
 40
1
 40
1
 40
1
 10
30.340643
 20
28.895817
 30
0.0
 10
29.922372
 20
30.022632
 30
0.0
 10
28.847279
 20
30.770329
 30
0.0
 10
27.645337
 20
30.770326
 30
0.0
  0
SPLINE
  5
10d
100
AcDbEntity
  8
Layer_1
 62
7
100
AcDbSpline
 70
8
 71
3
 72
8
 73
4
 74
0
 40
0
 40
0
 40
0
 40
0
 40
1
 40
1
 40
1
 40
1
 10
29.145340
 20
27.895317
 30
0.0
 10
29.145340
 20
28.431216
 30
0.0
 10
28.859441
 20
28.926406
 30
0.0
 10
28.395339
 20
29.194356
 30
0.0
  0
SPLINE
  5
10e
100
AcDbEntity
  8
Layer_1
 62
7
100
AcDbSpline
 70
8
 71
3
 72
8
 73
4
 74
0
 40
0
 40
0
 40
0
 40
0
 40
1
 40
1
 40
1
 40
1
 10
28.395339
 20
29.194356
 30
0.0
 10
27.931238
 20
29.462305
 30
0.0
 10
27.359440
 20
29.462305
 30
0.0
 10
26.895339
 20
29.194356
 30
0.0
  0
SPLINE
  5
10f
100
AcDbEntity
  8
Layer_1
 62
7
100
AcDbSpline
 70
8
 71
3
 72
8
 73
4
 74
0
 40
0
 40
0
 40
0
 40
0
 40
1
 40
1
 40
1
 40
1
 10
26.895339
 20
29.194356
 30
0.0
 10
26.431237
 20
28.926406
 30
0.0
 10
26.145338
 20
28.431216
 30
0.0
 10
26.145338
 20
27.895317
 30
0.0
  0
SPLINE
  5
110
100
AcDbEntity
  8
Layer_1
 62
7
100
AcDbSpline
 70
8
 71
3
 72
8
 73
4
 74
0
 40
0
 40
0
 40
0
 40
0
 40
1
 40
1
 40
1
 40
1
 10
26.145338
 20
27.895317
 30
0.0
 10
26.145338
 20
27.359418
 30
0.0
 10
26.431237
 20
26.864227
 30
0.0
 10
26.895339
 20
26.596278
 30
0.0
  0
SPLINE
  5
111
100
AcDbEntity
  8
Layer_1
 62
7
100
AcDbSpline
 70
8
 71
3
 72
8
 73
4
 74
0
 40
0
 40
0
 40
0
 40
0
 40
1
 40
1
 40
1
 40
1
 10
26.895339
 20
26.596278
 30
0.0
 10
27.359440
 20
26.328329
 30
0.0
 10
27.931238
 20
26.328329
 30
0.0
 10
28.395339
 20
26.596278
 30
0.0
  0
SPLINE
  5
112
100
AcDbEntity
  8
Layer_1
 62
7
100
AcDbSpline
 70
8
 71
3
 72
8
 73
4
 74
0
 40
0
 40
0
 40
0
 40
0
 40
1
 40
1
 40
1
 40
1
 10
28.395339
 20
26.596278
 30
0.0
 10
28.859441
 20
26.864227
 30
0.0
 10
29.145340
 20
27.359418
 30
0.0
 10
29.145340
 20
27.895317
 30
0.0
  0
LWPOLYLINE
  5
113
100
AcDbEntity
  8
Layer_1
 62
7
100
AcDbPolyline
 90
1
 70
1
 10
30.145337
 20
16.145320
 30
0.0
  0
SPLINE
  5
114
100
AcDbEntity
  8
Layer_1
 62
7
100
AcDbSpline
 70
8
 71
3
 72
8
 73
4
 74
0
 40
0
 40
0
 40
0
 40
0
 40
1
 40
1
 40
1
 40
1
 10
9.551075
 20
30.770326
 30
0.0
 10
9.619842
 20
30.770337
 30
0.0
 10
9.687867
 20
30.784533
 30
0.0
 10
9.750899
 20
30.812026
 30
0.0
  0
LWPOLYLINE
  5
115
100
AcDbEntity
  8
Layer_1
 62
7
100
AcDbPolyline
 90
1
 70
1
 10
29.145340
 20
27.895317
 30
0.0
  0
SPLINE
  5
116
100
AcDbEntity
  8
Layer_1
 62
7
100
AcDbSpline
 70
8
 71
3
 72
8
 73
4
 74
0
 40
0
 40
0
 40
0
 40
0
 40
1
 40
1
 40
1
 40
1
 10
4.645344
 20
30.770326
 30
0.0
 10
3.443402
 20
30.770329
 30
0.0
 10
2.368309
 20
30.022632
 30
0.0
 10
1.950038
 20
28.895817
 30
0.0
  0
SPLINE
  5
117
100
AcDbEntity
  8
Layer_1
 62
7
100
AcDbSpline
 70
8
 71
3
 72
8
 73
4
 74
0
 40
0
 40
0
 40
0
 40
0
 40
1
 40
1
 40
1
 40
1
 10
1.950038
 20
28.895817
 30
0.0
 10
1.531766
 20
27.769001
 30
0.0
 10
1.858603
 20
26.500911
 30
0.0
 10
2.769432
 20
25.716657
 30
0.0
  0
SPLINE
  5
118
100
AcDbEntity
  8
Layer_1
 62
7
100
AcDbSpline
 70
8
 71
3
 72
8
 73
4
 74
0
 40
0
 40
0
 40
0
 40
0
 40
1
 40
1
 40
1
 40
1
 10
2.858403
 20
25.059198
 30
0.0
 10
2.999356
 20
25.269298
 30
0.0
 10
2.961157
 20
25.551577
 30
0.0
 10
2.769433
 20
25.716657
 30
0.0
  0
SPLINE
  5
119
100
AcDbEntity
  8
Layer_1
 62
7
100
AcDbSpline
 70
8
 71
3
 72
8
 73
4
 74
0
 40
0
 40
0
 40
0
 40
0
 40
1
 40
1
 40
1
 40
1
 10
2.858403
 20
25.059208
 30
0.0
 10
-0.759011
 20
19.667127
 30
0.0
 10
-0.759011
 20
12.623532
 30
0.0
 10
2.858403
 20
7.231451
 30
0.0
  0
SPLINE
  5
11a
100
AcDbEntity
  8
Layer_1
 62
7
100
AcDbSpline
 70
8
 71
3
 72
8
 73
4
 74
0
 40
0
 40
0
 40
0
 40
0
 40
1
 40
1
 40
1
 40
1
 10
2.769432
 20
6.573992
 30
0.0
 10
2.961156
 20
6.739072
 30
0.0
 10
2.999355
 20
7.021351
 30
0.0
 10
2.858402
 20
7.231451
 30
0.0
  0
SPLINE
  5
11b
100
AcDbEntity
  8
Layer_1
 62
7
100
AcDbSpline
 70
8
 71
3
 72
8
 73
4
 74
0
 40
0
 40
0
 40
0
 40
0
 40
1
 40
1
 40
1
 40
1
 10
2.769432
 20
6.573992
 30
0.0
 10
1.858611
 20
5.789736
 30
0.0
 10
1.531779
 20
4.521651
 30
0.0
 10
1.950050
 20
3.394840
 30
0.0
  0
SPLINE
  5
11c
100
AcDbEntity
  8
Layer_1
 62
7
100
AcDbSpline
 70
8
 71
3
 72
8
 73
4
 74
0
 40
0
 40
0
 40
0
 40
0
 40
1
 40
1
 40
1
 40
1
 10
1.950050
 20
3.394840
 30
0.0
 10
2.368321
 20
2.268030
 30
0.0
 10
3.443407
 20
1.520335
 30
0.0
 10
4.645344
 20
1.520333
 30
0.0
  0
LWPOLYLINE
  5
11d
100
AcDbEntity
  8
Layer_1
 62
7
100
AcDbPolyline
 90
2
 70
0
 10
4.645344
 20
30.770326
 30
0.0
 10
9.551075
 20
30.770326
 30
0.0
  0
SPLINE
  5
11e
100
AcDbEntity
  8
Layer_1
 62
7
100
AcDbSpline
 70
8
 71
3
 72
8
 73
4
 74
0
 40
0
 40
0
 40
0
 40
0
 40
1
 40
1
 40
1
 40
1
 10
9.750899
 20
1.478663
 30
0.0
 10
9.687867
 20
1.506156
 30
0.0
 10
9.619842
 20
1.520352
 30
0.0
 10
9.551075
 20
1.520363
 30
0.0
  0
SPLINE
  5
11f
100
AcDbEntity
  8
Layer_1
 62
7
100
AcDbSpline
 70
8
 71
3
 72
8
 73
4
 74
0
 40
0
 40
0
 40
0
 40
0
 40
1
 40
1
 40
1
 40
1
 10
9.750901
 20
1.478663
 30
0.0
 10
13.828515
 20
-0.299115
 30
0.0
 10
18.462168
 20
-0.299115
 30
0.0
 10
22.539782
 20
1.478663
 30
0.0
  0
SPLINE
  5
120
100
AcDbEntity
  8
Layer_1
 62
7
100
AcDbSpline
 70
8
 71
3
 72
8
 73
4
 74
0
 40
0
 40
0
 40
0
 40
0
 40
1
 40
1
 40
1
 40
1
 10
22.739609
 20
1.520333
 30
0.0
 10
22.670841
 20
1.520322
 30
0.0
 10
22.602815
 20
1.506126
 30
0.0
 10
22.539782
 20
1.478633
 30
0.0
  0
LWPOLYLINE
  5
121
100
AcDbEntity
  8
Layer_1
 62
7
100
AcDbPolyline
 90
2
 70
0
 10
4.645344
 20
1.520333
 30
0.0
 10
9.551075
 20
1.520333
 30
0.0
  0
SPLINE
  5
122
100
AcDbEntity
  8
Layer_1
 62
7
100
AcDbSpline
 70
8
 71
3
 72
8
 73
4
 74
0
 40
0
 40
0
 40
0
 40
0
 40
1
 40
1
 40
1
 40
1
 10
27.645337
 20
1.520333
 30
0.0
 10
28.847274
 20
1.520335
 30
0.0
 10
29.922360
 20
2.268030
 30
0.0
 10
30.340631
 20
3.394840
 30
0.0
  0
SPLINE
  5
123
100
AcDbEntity
  8
Layer_1
 62
7
100
AcDbSpline
 70
8
 71
3
 72
8
 73
4
 74
0
 40
0
 40
0
 40
0
 40
0
 40
1
 40
1
 40
1
 40
1
 10
30.340631
 20
3.394840
 30
0.0
 10
30.758902
 20
4.521651
 30
0.0
 10
30.432070
 20
5.789736
 30
0.0
 10
29.521249
 20
6.573992
 30
0.0
  0
SPLINE
  5
124
100
AcDbEntity
  8
Layer_1
 62
7
100
AcDbSpline
 70
8
 71
3
 72
8
 73
4
 74
0
 40
0
 40
0
 40
0
 40
0
 40
1
 40
1
 40
1
 40
1
 10
29.432278
 20
7.231451
 30
0.0
 10
29.291325
 20
7.021351
 30
0.0
 10
29.329524
 20
6.739072
 30
0.0
 10
29.521248
 20
6.573992
 30
0.0
  0
SPLINE
  5
125
100
AcDbEntity
  8
Layer_1
 62
7
100
AcDbSpline
 70
8
 71
3
 72
8
 73
4
 74
0
 40
0
 40
0
 40
0
 40
0
 40
1
 40
1
 40
1
 40
1
 10
29.145340
 20
4.395332
 30
0.0
 10
29.145340
 20
4.931231
 30
0.0
 10
28.859441
 20
5.426422
 30
0.0
 10
28.395339
 20
5.694371
 30
0.0
  0
SPLINE
  5
126
100
AcDbEntity
  8
Layer_1
 62
7
100
AcDbSpline
 70
8
 71
3
 72
8
 73
4
 74
0
 40
0
 40
0
 40
0
 40
0
 40
1
 40
1
 40
1
 40
1
 10
28.395339
 20
5.694371
 30
0.0
 10
27.931238
 20
5.962320
 30
0.0
 10
27.359440
 20
5.962320
 30
0.0
 10
26.895339
 20
5.694371
 30
0.0
  0
SPLINE
  5
127
100
AcDbEntity
  8
Layer_1
 62
7
100
AcDbSpline
 70
8
 71
3
 72
8
 73
4
 74
0
 40
0
 40
0
 40
0
 40
0
 40
1
 40
1
 40
1
 40
1
 10
26.895339
 20
5.694371
 30
0.0
 10
26.431237
 20
5.426422
 30
0.0
 10
26.145338
 20
4.931231
 30
0.0
 10
26.145338
 20
4.395332
 30
0.0
  0
SPLINE
  5
128
100
AcDbEntity
  8
Layer_1
 62
7
100
AcDbSpline
 70
8
 71
3
 72
8
 73
4
 74
0
 40
0
 40
0
 40
0
 40
0
 40
1
 40
1
 40
1
 40
1
 10
26.145338
 20
4.395332
 30
0.0
 10
26.145338
 20
3.859433
 30
0.0
 10
26.431237
 20
3.364243
 30
0.0
 10
26.895339
 20
3.096293
 30
0.0
  0
SPLINE
  5
129
100
AcDbEntity
  8
Layer_1
 62
7
100
AcDbSpline
 70
8
 71
3
 72
8
 73
4
 74
0
 40
0
 40
0
 40
0
 40
0
 40
1
 40
1
 40
1
 40
1
 10
26.895339
 20
3.096293
 30
0.0
 10
27.359440
 20
2.828344
 30
0.0
 10
27.931238
 20
2.828344
 30
0.0
 10
28.395339
 20
3.096293
 30
0.0
  0
SPLINE
  5
12a
100
AcDbEntity
  8
Layer_1
 62
7
100
AcDbSpline
 70
8
 71
3
 72
8
 73
4
 74
0
 40
0
 40
0
 40
0
 40
0
 40
1
 40
1
 40
1
 40
1
 10
28.395339
 20
3.096293
 30
0.0
 10
28.859441
 20
3.364243
 30
0.0
 10
29.145340
 20
3.859433
 30
0.0
 10
29.145340
 20
4.395332
 30
0.0
  0
LWPOLYLINE
  5
12b
100
AcDbEntity
  8
Layer_1
 62
7
100
AcDbPolyline
 90
2
 70
0
 10
22.739609
 20
1.520333
 30
0.0
 10
27.645337
 20
1.520333
 30
0.0
  0
SPLINE
  5
12c
100
AcDbEntity
  8
Layer_1
 62
7
100
AcDbSpline
 70
8
 71
3
 72
8
 73
4
 74
0
 40
0
 40
0
 40
0
 40
0
 40
1
 40
1
 40
1
 40
1
 10
6.145343
 20
27.895317
 30
0.0
 10
6.145780
 20
28.431507
 30
0.0
 10
5.859978
 20
28.927154
 30
0.0
 10
5.395697
 20
29.195375
 30
0.0
  0
SPLINE
  5
12d
100
AcDbEntity
  8
Layer_1
 62
7
100
AcDbSpline
 70
8
 71
3
 72
8
 73
4
 74
0
 40
0
 40
0
 40
0
 40
0
 40
1
 40
1
 40
1
 40
1
 10
5.395697
 20
29.195375
 30
0.0
 10
4.931416
 20
29.463597
 30
0.0
 10
4.359271
 20
29.463597
 30
0.0
 10
3.894990
 20
29.195375
 30
0.0
  0
SPLINE
  5
12e
100
AcDbEntity
  8
Layer_1
 62
7
100
AcDbSpline
 70
8
 71
3
 72
8
 73
4
 74
0
 40
0
 40
0
 40
0
 40
0
 40
1
 40
1
 40
1
 40
1
 10
3.894990
 20
29.195375
 30
0.0
 10
3.430709
 20
28.927154
 30
0.0
 10
3.144907
 20
28.431507
 30
0.0
 10
3.145344
 20
27.895317
 30
0.0
  0
SPLINE
  5
12f
100
AcDbEntity
  8
Layer_1
 62
7
100
AcDbSpline
 70
8
 71
3
 72
8
 73
4
 74
0
 40
0
 40
0
 40
0
 40
0
 40
1
 40
1
 40
1
 40
1
 10
3.145344
 20
27.895317
 30
0.0
 10
3.144907
 20
27.359127
 30
0.0
 10
3.430709
 20
26.863480
 30
0.0
 10
3.894990
 20
26.595259
 30
0.0
  0
SPLINE
  5
130
100
AcDbEntity
  8
Layer_1
 62
7
100
AcDbSpline
 70
8
 71
3
 72
8
 73
4
 74
0
 40
0
 40
0
 40
0
 40
0
 40
1
 40
1
 40
1
 40
1
 10
3.894990
 20
26.595259
 30
0.0
 10
4.359271
 20
26.327037
 30
0.0
 10
4.931416
 20
26.327037
 30
0.0
 10
5.395697
 20
26.595259
 30
0.0
  0
SPLINE
  5
131
100
AcDbEntity
  8
Layer_1
 62
7
100
AcDbSpline
 70
8
 71
3
 72
8
 73
4
 74
0
 40
0
 40
0
 40
0
 40
0
 40
1
 40
1
 40
1
 40
1
 10
5.395697
 20
26.595259
 30
0.0
 10
5.859978
 20
26.863480
 30
0.0
 10
6.145780
 20
27.359127
 30
0.0
 10
6.145343
 20
27.895317
 30
0.0
  0
LWPOLYLINE
  5
132
100
AcDbEntity
  8
Layer_1
 62
7
100
AcDbPolyline
 90
1
 70
1
 10
29.145340
 20
4.395332
 30
0.0
  0
SPLINE
  5
133
100
AcDbEntity
  8
Layer_1
 62
7
100
AcDbSpline
 70
8
 71
3
 72
8
 73
4
 74
0
 40
0
 40
0
 40
0
 40
0
 40
1
 40
1
 40
1
 40
1
 10
6.145343
 20
4.395332
 30
0.0
 10
6.145780
 20
4.931522
 30
0.0
 10
5.859978
 20
5.427169
 30
0.0
 10
5.395697
 20
5.695390
 30
0.0
  0
SPLINE
  5
134
100
AcDbEntity
  8
Layer_1
 62
7
100
AcDbSpline
 70
8
 71
3
 72
8
 73
4
 74
0
 40
0
 40
0
 40
0
 40
0
 40
1
 40
1
 40
1
 40
1
 10
5.395697
 20
5.695390
 30
0.0
 10
4.931416
 20
5.963612
 30
0.0
 10
4.359271
 20
5.963612
 30
0.0
 10
3.894990
 20
5.695390
 30
0.0
  0
SPLINE
  5
135
100
AcDbEntity
  8
Layer_1
 62
7
100
AcDbSpline
 70
8
 71
3
 72
8
 73
4
 74
0
 40
0
 40
0
 40
0
 40
0
 40
1
 40
1
 40
1
 40
1
 10
3.894990
 20
5.695390
 30
0.0
 10
3.430709
 20
5.427169
 30
0.0
 10
3.144907
 20
4.931522
 30
0.0
 10
3.145344
 20
4.395332
 30
0.0
  0
SPLINE
  5
136
100
AcDbEntity
  8
Layer_1
 62
7
100
AcDbSpline
 70
8
 71
3
 72
8
 73
4
 74
0
 40
0
 40
0
 40
0
 40
0
 40
1
 40
1
 40
1
 40
1
 10
3.145344
 20
4.395332
 30
0.0
 10
3.144907
 20
3.859142
 30
0.0
 10
3.430709
 20
3.363495
 30
0.0
 10
3.894990
 20
3.095274
 30
0.0
  0
SPLINE
  5
137
100
AcDbEntity
  8
Layer_1
 62
7
100
AcDbSpline
 70
8
 71
3
 72
8
 73
4
 74
0
 40
0
 40
0
 40
0
 40
0
 40
1
 40
1
 40
1
 40
1
 10
3.894990
 20
3.095274
 30
0.0
 10
4.359271
 20
2.827052
 30
0.0
 10
4.931416
 20
2.827052
 30
0.0
 10
5.395697
 20
3.095274
 30
0.0
  0
SPLINE
  5
138
100
AcDbEntity
  8
Layer_1
 62
7
100
AcDbSpline
 70
8
 71
3
 72
8
 73
4
 74
0
 40
0
 40
0
 40
0
 40
0
 40
1
 40
1
 40
1
 40
1
 10
5.395697
 20
3.095274
 30
0.0
 10
5.859978
 20
3.363495
 30
0.0
 10
6.145780
 20
3.859142
 30
0.0
 10
6.145343
 20
4.395332
 30
0.0
  0
LWPOLYLINE
  5
139
100
AcDbEntity
  8
Layer_1
 62
7
100
AcDbPolyline
 90
1
 70
1
 10
6.145343
 20
27.895317
 30
0.0
  0
LWPOLYLINE
  5
13a
100
AcDbEntity
  8
Layer_1
 62
7
100
AcDbPolyline
 90
1
 70
1
 10
6.145343
 20
4.395332
 30
0.0
  0
ENDSEC
  0
SECTION
  2
OBJECTS
  0
DICTIONARY
  5
C
330
0
100
AcDbDictionary
  3
ACAD_GROUP
350
D
  3
ACAD_MLINESTYLE
350
17
  0
DICTIONARY
  5
D
330
C
100
AcDbDictionary
  0
DICTIONARY
  5
1A
330
C
100
AcDbDictionary
  0
DICTIONARY
  5
17
330
C
100
AcDbDictionary
  3
STANDARD
350
18
  0
DICTIONARY
  5
19
330
C
100
AcDbDictionary
  0
ENDSEC
  0
EOF
