<?xml version="1.0" encoding="UTF-8" standalone="no"?>
<!-- Created with Inkscape (http://www.inkscape.org/) -->

<svg
   xmlns:dc="http://purl.org/dc/elements/1.1/"
   xmlns:cc="http://creativecommons.org/ns#"
   xmlns:rdf="http://www.w3.org/1999/02/22-rdf-syntax-ns#"
   xmlns:svg="http://www.w3.org/2000/svg"
   xmlns="http://www.w3.org/2000/svg"
   xmlns:sodipodi="http://sodipodi.sourceforge.net/DTD/sodipodi-0.dtd"
   xmlns:inkscape="http://www.inkscape.org/namespaces/inkscape"
   width="36.109192mm"
   height="36.464794mm"
   viewBox="0 0 127.94596 129.20596"
   id="svg2"
   version="1.1"
   inkscape:version="0.91 r13725"
   sodipodi:docname="Cam Cover Gasket.svg">
  <defs
     id="defs4" />
  <sodipodi:namedview
     id="base"
     pagecolor="#ffffff"
     bordercolor="#666666"
     borderopacity="1.0"
     inkscape:pageopacity="0.0"
     inkscape:pageshadow="2"
     inkscape:zoom="3.959798"
     inkscape:cx="75.601183"
     inkscape:cy="49.007968"
     inkscape:document-units="px"
     inkscape:current-layer="layer1"
     showgrid="false"
     inkscape:window-width="1920"
     inkscape:window-height="1017"
     inkscape:window-x="-8"
     inkscape:window-y="-8"
     inkscape:window-maximized="1"
     fit-margin-top="0"
     fit-margin-left="0"
     fit-margin-right="0"
     fit-margin-bottom="0" />
  <metadata
     id="metadata7">
    <rdf:RDF>
      <cc:Work
         rdf:about="">
        <dc:format>image/svg+xml</dc:format>
        <dc:type
           rdf:resource="http://purl.org/dc/dcmitype/StillImage" />
        <dc:title></dc:title>
      </cc:Work>
    </rdf:RDF>
  </metadata>
  <g
     inkscape:label="Layer 1"
     inkscape:groupmode="layer"
     id="layer1"
     transform="translate(-414.16948,-464.97452)">
    <g
       id="g3711">
      <path
         id="path3357"
         d="m 530.22485,497.02598 -104.16479,0"
         style="fill:none;stroke:#000000;stroke-width:1.10000002"
         inkscape:connector-curvature="0" />
      <path
         id="path3359"
         d="m 532.32495,499.12608 a 2.100098,2.100098 0 0 0 -2.1001,-2.1001"
         style="fill:none;stroke:#000000;stroke-width:1.10000002"
         inkscape:connector-curvature="0" />
      <path
         id="path3361"
         d="m 532.32495,512.62034 0,-13.49426"
         style="fill:none;stroke:#000000;stroke-width:1.10000002"
         inkscape:connector-curvature="0" />
      <path
         id="path3363"
         d="m 530.27915,514.71973 a 2.100098,2.100098 0 0 0 2.0458,-2.09939"
         style="fill:none;stroke:#000000;stroke-width:1.10000002"
         inkscape:connector-curvature="0" />
      <path
         id="path3365"
         d="m 510.00961,515.24392 20.26959,-0.52419"
         style="fill:none;stroke:#000000;stroke-width:1.10000002"
         inkscape:connector-curvature="0" />
      <path
         id="path3367"
         d="m 510.00967,515.24392 a 2.100098,2.100098 0 0 0 -2.0458,2.09939"
         style="fill:none;stroke:#000000;stroke-width:1.10000002"
         inkscape:connector-curvature="0" />
      <path
         id="path3369"
         d="m 507.96387,570.5294 0,-53.18609"
         style="fill:none;stroke:#000000;stroke-width:1.10000002"
         inkscape:connector-curvature="0" />
      <path
         id="path3371"
         d="m 505.86377,572.6295 a 2.100098,2.100098 0 0 0 2.1001,-2.1001"
         style="fill:none;stroke:#000000;stroke-width:1.10000002"
         inkscape:connector-curvature="0" />
      <path
         id="path3373"
         d="m 450.42114,572.6295 55.44263,0"
         style="fill:none;stroke:#000000;stroke-width:1.10000002"
         inkscape:connector-curvature="0" />
      <path
         id="path3375"
         d="m 494.94324,593.63048 -33.60157,0"
         style="fill:none;stroke:#000000;stroke-width:1.10000002"
         inkscape:connector-curvature="0" />
      <path
         id="path3377"
         d="m 494.94324,581.02989 0,12.60059"
         style="fill:none;stroke:#000000;stroke-width:1.10000002"
         inkscape:connector-curvature="0" />
      <path
         id="path3379"
         d="m 528.5448,581.02989 -33.60156,0"
         style="fill:none;stroke:#000000;stroke-width:1.10000002"
         inkscape:connector-curvature="0" />
      <path
         id="path3381"
         d="m 528.5448,581.02989 a 12.600586,12.600586 0 1 0 0,-25.20117"
         style="fill:none;stroke:#000000;stroke-width:1.10000002"
         inkscape:connector-curvature="0" />
      <path
         id="path3383"
         d="m 518.46435,555.82872 10.08045,0"
         style="fill:none;stroke:#000000;stroke-width:1.10000002"
         inkscape:connector-curvature="0" />
      <path
         id="path3385"
         d="m 516.36426,553.72862 a 2.100098,2.100098 0 0 0 2.10009,2.1001"
         style="fill:none;stroke:#000000;stroke-width:1.10000002"
         inkscape:connector-curvature="0" />
      <path
         id="path3387"
         d="m 516.36426,524.74727 0,28.98135"
         style="fill:none;stroke:#000000;stroke-width:1.10000002"
         inkscape:connector-curvature="0" />
      <path
         id="path3389"
         d="m 518.46435,522.64717 a 2.100098,2.100098 0 0 0 -2.10009,2.1001"
         style="fill:none;stroke:#000000;stroke-width:1.10000002"
         inkscape:connector-curvature="0" />
      <path
         id="path3391"
         d="m 539.46533,522.64717 -21.00098,0"
         style="fill:none;stroke:#000000;stroke-width:1.10000002"
         inkscape:connector-curvature="0" />
      <path
         id="path3393"
         d="m 539.46533,522.64717 a 2.100098,2.100098 0 0 0 2.1001,-2.1001"
         style="fill:none;stroke:#000000;stroke-width:1.10000002"
         inkscape:connector-curvature="0" />
      <path
         id="path3395"
         d="m 541.56543,491.1457 0,29.40137"
         style="fill:none;stroke:#000000;stroke-width:1.10000002"
         inkscape:connector-curvature="0" />
      <path
         id="path3397"
         d="m 541.56543,491.1457 a 2.100098,2.100098 0 0 0 -2.1001,-2.10009"
         style="fill:none;stroke:#000000;stroke-width:1.10000002"
         inkscape:connector-curvature="0" />
      <path
         id="path3399"
         d="m 524.3446,489.04561 15.12073,0"
         style="fill:none;stroke:#000000;stroke-width:1.10000002"
         inkscape:connector-curvature="0" />
      <path
         id="path3401"
         d="m 522.2445,486.94551 a 2.100098,2.100098 0 0 0 2.1001,2.1001"
         style="fill:none;stroke:#000000;stroke-width:1.10000002"
         inkscape:connector-curvature="0" />
      <path
         id="path3403"
         d="m 522.2445,478.12511 0,8.8204"
         style="fill:none;stroke:#000000;stroke-width:1.10000002"
         inkscape:connector-curvature="0" />
      <path
         id="path3405"
         d="M 522.2445,478.12511 A 12.600586,12.600586 0 0 0 509.64392,465.52452"
         style="fill:none;stroke:#000000;stroke-width:1.10000002"
         inkscape:connector-curvature="0" />
      <path
         id="path3407"
         d="m 446.64099,465.52452 63.00293,0"
         style="fill:none;stroke:#000000;stroke-width:1.10000002"
         inkscape:connector-curvature="0" />
      <path
         id="path3409"
         d="m 534.84509,568.4293 a 6.300295,6.300295 0 1 0 -12.60059,0 6.300295,6.300295 0 0 0 12.60059,0 z"
         style="fill:none;stroke:#000000;stroke-width:1.10000002"
         inkscape:connector-curvature="0" />
      <path
         id="path3411"
         d="m 515.94421,478.12511 a 6.300293,6.300293 0 1 0 -12.60058,0 6.300293,6.300293 0 1 0 12.60058,0 z"
         style="fill:none;stroke:#000000;stroke-width:1.10000002"
         inkscape:connector-curvature="0" />
      <path
         id="path3413"
         d="m 437.82056,555.82872 a 2.100098,2.100098 0 0 0 2.10009,-2.1001"
         style="fill:none;stroke:#000000;stroke-width:1.10000002"
         inkscape:connector-curvature="0" />
      <path
         id="path3415"
         d="m 427.74011,555.82872 10.08045,0"
         style="fill:none;stroke:#000000;stroke-width:1.10000002"
         inkscape:connector-curvature="0" />
      <path
         id="path3417"
         d="m 427.74011,555.82872 a 12.600586,12.600586 0 0 0 0,25.20117"
         style="fill:none;stroke:#000000;stroke-width:1.10000002"
         inkscape:connector-curvature="0" />
      <path
         id="path3419"
         d="m 461.34167,581.02989 -33.60156,0"
         style="fill:none;stroke:#000000;stroke-width:1.10000002"
         inkscape:connector-curvature="0" />
      <path
         id="path3421"
         d="m 461.34167,581.02989 0,12.60059"
         style="fill:none;stroke:#000000;stroke-width:1.10000002"
         inkscape:connector-curvature="0" />
      <path
         id="path3423"
         d="m 446.64099,465.52452 a 12.600586,12.600586 0 0 0 -12.60058,12.60059"
         style="fill:none;stroke:#000000;stroke-width:1.10000002"
         inkscape:connector-curvature="0" />
      <path
         id="path3425"
         d="m 434.04041,478.12511 0,8.8204"
         style="fill:none;stroke:#000000;stroke-width:1.10000002"
         inkscape:connector-curvature="0" />
      <path
         id="path3427"
         d="m 431.94031,489.04561 a 2.100098,2.100098 0 0 0 2.1001,-2.1001"
         style="fill:none;stroke:#000000;stroke-width:1.10000002"
         inkscape:connector-curvature="0" />
      <path
         id="path3429"
         d="m 416.81958,489.04561 15.12073,0"
         style="fill:none;stroke:#000000;stroke-width:1.10000002"
         inkscape:connector-curvature="0" />
      <path
         id="path3431"
         d="m 416.81958,489.04561 a 2.100098,2.100098 0 0 0 -2.1001,2.10009"
         style="fill:none;stroke:#000000;stroke-width:1.10000002"
         inkscape:connector-curvature="0" />
      <path
         id="path3433"
         d="m 414.71948,491.1457 0,29.40137"
         style="fill:none;stroke:#000000;stroke-width:1.10000002"
         inkscape:connector-curvature="0" />
      <path
         id="path3435"
         d="m 414.71948,520.54707 a 2.100098,2.100098 0 0 0 2.1001,2.1001"
         style="fill:none;stroke:#000000;stroke-width:1.10000002"
         inkscape:connector-curvature="0" />
      <path
         id="path3437"
         d="m 437.82056,522.64717 -21.00098,0"
         style="fill:none;stroke:#000000;stroke-width:1.10000002"
         inkscape:connector-curvature="0" />
      <path
         id="path3439"
         d="m 439.92065,524.74727 a 2.100098,2.100098 0 0 0 -2.10009,-2.1001"
         style="fill:none;stroke:#000000;stroke-width:1.10000002"
         inkscape:connector-curvature="0" />
      <path
         id="path3441"
         d="m 439.92065,524.74727 0,28.98135"
         style="fill:none;stroke:#000000;stroke-width:1.10000002"
         inkscape:connector-curvature="0" />
      <path
         id="path3443"
         d="m 452.94128,478.12511 a 6.300293,6.300293 0 1 0 -12.60058,0 6.300293,6.300293 0 1 0 12.60058,0 z"
         style="fill:none;stroke:#000000;stroke-width:1.10000002"
         inkscape:connector-curvature="0" />
      <path
         id="path3445"
         d="m 448.32104,570.5294 a 2.100098,2.100098 0 0 0 2.1001,2.1001"
         style="fill:none;stroke:#000000;stroke-width:1.10000002"
         inkscape:connector-curvature="0" />
      <path
         id="path3447"
         d="m 448.32104,570.5294 0,-53.18609"
         style="fill:none;stroke:#000000;stroke-width:1.10000002"
         inkscape:connector-curvature="0" />
      <path
         id="path3449"
         d="m 448.32104,517.34331 a 2.100098,2.100098 0 0 0 -2.0458,-2.09939"
         style="fill:none;stroke:#000000;stroke-width:1.10000002"
         inkscape:connector-curvature="0" />
      <path
         id="path3451"
         d="m 446.27529,515.24392 -20.26958,-0.52419"
         style="fill:none;stroke:#000000;stroke-width:1.10000002"
         inkscape:connector-curvature="0" />
      <path
         id="path3453"
         d="m 423.95996,512.62034 a 2.100098,2.100098 0 0 0 2.0458,2.09939"
         style="fill:none;stroke:#000000;stroke-width:1.10000002"
         inkscape:connector-curvature="0" />
      <path
         id="path3455"
         d="m 423.95996,512.62034 0,-13.49426"
         style="fill:none;stroke:#000000;stroke-width:1.10000002"
         inkscape:connector-curvature="0" />
      <path
         id="path3457"
         d="m 426.06006,497.02598 a 2.100098,2.100098 0 0 0 -2.1001,2.1001"
         style="fill:none;stroke:#000000;stroke-width:1.10000002"
         inkscape:connector-curvature="0" />
      <path
         id="path3459"
         d="m 434.04041,568.4293 a 6.300295,6.300295 0 1 0 -12.60059,0 6.300295,6.300295 0 0 0 12.60059,0 z"
         style="fill:none;stroke:#000000;stroke-width:1.10000002"
         inkscape:connector-curvature="0" />
    </g>
  </g>
</svg>
