<?xml version="1.0" encoding="UTF-8" standalone="no"?>
<!-- Created with Inkscape (http://www.inkscape.org/) -->

<svg
   xmlns:dc="http://purl.org/dc/elements/1.1/"
   xmlns:cc="http://creativecommons.org/ns#"
   xmlns:rdf="http://www.w3.org/1999/02/22-rdf-syntax-ns#"
   xmlns:svg="http://www.w3.org/2000/svg"
   xmlns="http://www.w3.org/2000/svg"
   xmlns:sodipodi="http://sodipodi.sourceforge.net/DTD/sodipodi-0.dtd"
   xmlns:inkscape="http://www.inkscape.org/namespaces/inkscape"
   width="38.242489mm"
   height="38.242825mm"
   viewBox="0 0 135.50488 135.50607"
   id="svg3835"
   version="1.1"
   inkscape:version="0.91 r13725"
   sodipodi:docname="Rear Cover Gasket.svg">
  <defs
     id="defs3837" />
  <sodipodi:namedview
     id="base"
     pagecolor="#ffffff"
     bordercolor="#666666"
     borderopacity="1.0"
     inkscape:pageopacity="0.0"
     inkscape:pageshadow="2"
     inkscape:zoom="1.4142136"
     inkscape:cx="222.55261"
     inkscape:cy="92.398199"
     inkscape:document-units="px"
     inkscape:current-layer="layer1"
     showgrid="false"
     inkscape:window-width="1920"
     inkscape:window-height="1017"
     inkscape:window-x="-8"
     inkscape:window-y="-8"
     inkscape:window-maximized="1"
     fit-margin-top="0"
     fit-margin-left="0"
     fit-margin-right="0"
     fit-margin-bottom="0" />
  <metadata
     id="metadata3840">
    <rdf:RDF>
      <cc:Work
         rdf:about="">
        <dc:format>image/svg+xml</dc:format>
        <dc:type
           rdf:resource="http://purl.org/dc/dcmitype/StillImage" />
        <dc:title></dc:title>
      </cc:Work>
    </rdf:RDF>
  </metadata>
  <g
     inkscape:label="Layer 1"
     inkscape:groupmode="layer"
     id="layer1"
     transform="translate(-315.1047,-713.18059)">
    <g
       transform="translate(107.22013,248.57143)"
       id="g3683">
      <path
         id="path3461"
         d="m 303.33423,470.93435 20.60503,0"
         style="fill:none;stroke:#000000;stroke-width:1.10000002"
         inkscape:connector-curvature="0" />
      <path
         id="path3463"
         d="m 302.49492,470.75934 a 2.100098,2.100098 0 0 0 0.83931,0.17501"
         style="fill:none;stroke:#000000;stroke-width:1.10000002"
         inkscape:connector-curvature="0" />
      <path
         id="path3465"
         d="m 302.49492,470.75934 a 67.203123,67.203123 0 0 0 -53.71581,0"
         style="fill:none;stroke:#000000;stroke-width:1.10000002"
         inkscape:connector-curvature="0" />
      <path
         id="path3467"
         d="m 334.43974,532.3622 a 58.802733,58.802733 0 1 0 -117.60546,0 58.802733,58.802733 0 1 0 117.60546,0 z"
         style="fill:none;stroke:#000000;stroke-width:1.10000002"
         inkscape:connector-curvature="0" />
      <path
         id="path3469"
         d="m 331.44475,569.80223 a 67.203123,67.203123 0 0 0 0,-74.88005"
         style="fill:none;stroke:#000000;stroke-width:1.10000002"
         inkscape:connector-curvature="0" />
      <path
         id="path3471"
         d="m 331.81845,492.16073 a 2.100098,2.100098 0 0 0 -0.3737,2.76145"
         style="fill:none;stroke:#000000;stroke-width:1.10000002"
         inkscape:connector-curvature="0" />
      <path
         id="path3473"
         d="m 331.81845,492.16073 a 12.075561,12.075561 0 0 0 -7.8792,-21.22638"
         style="fill:none;stroke:#000000;stroke-width:1.10000002"
         inkscape:connector-curvature="0" />
      <path
         id="path3475"
         d="m 330.23955,483.00991 a 6.300295,6.300295 0 1 0 -12.60059,0 6.300295,6.300295 0 0 0 12.60059,0 z"
         style="fill:none;stroke:#000000;stroke-width:1.10000002"
         inkscape:connector-curvature="0" />
      <path
         id="path3477"
         d="m 247.93979,470.93435 a 2.100098,2.100098 0 0 0 0.83931,-0.17501"
         style="fill:none;stroke:#000000;stroke-width:1.10000002"
         inkscape:connector-curvature="0" />
      <path
         id="path3479"
         d="m 227.33477,470.93435 20.60502,0"
         style="fill:none;stroke:#000000;stroke-width:1.10000002"
         inkscape:connector-curvature="0" />
      <path
         id="path3481"
         d="m 227.33477,470.93435 a 12.075561,12.075561 0 0 0 -7.8792,21.22638"
         style="fill:none;stroke:#000000;stroke-width:1.10000002"
         inkscape:connector-curvature="0" />
      <path
         id="path3483"
         d="m 219.82927,494.92218 a 2.100098,2.100098 0 0 0 -0.37369,-2.76145"
         style="fill:none;stroke:#000000;stroke-width:1.10000002"
         inkscape:connector-curvature="0" />
      <path
         id="path3485"
         d="m 219.82927,494.92217 a 67.203123,67.203123 0 0 0 0,74.88006"
         style="fill:none;stroke:#000000;stroke-width:1.10000002"
         inkscape:connector-curvature="0" />
      <path
         id="path3487"
         d="m 219.45558,572.56367 a 2.100098,2.100098 0 0 0 0.37369,-2.76144"
         style="fill:none;stroke:#000000;stroke-width:1.10000002"
         inkscape:connector-curvature="0" />
      <path
         id="path3489"
         d="m 219.45557,572.56368 a 12.075561,12.075561 0 0 0 7.8792,21.22638"
         style="fill:none;stroke:#000000;stroke-width:1.10000002"
         inkscape:connector-curvature="0" />
      <path
         id="path3491"
         d="m 227.33477,593.79006 20.60502,0"
         style="fill:none;stroke:#000000;stroke-width:1.10000002"
         inkscape:connector-curvature="0" />
      <path
         id="path3493"
         d="m 248.7791,593.96507 a 2.100098,2.100098 0 0 0 -0.83931,-0.17501"
         style="fill:none;stroke:#000000;stroke-width:1.10000002"
         inkscape:connector-curvature="0" />
      <path
         id="path3495"
         d="m 248.77911,593.96507 a 67.203123,67.203123 0 0 0 53.71581,-10e-6"
         style="fill:none;stroke:#000000;stroke-width:1.10000002"
         inkscape:connector-curvature="0" />
      <path
         id="path3497"
         d="m 303.33423,593.79006 a 2.100098,2.100098 0 0 0 -0.83931,0.17501"
         style="fill:none;stroke:#000000;stroke-width:1.10000002"
         inkscape:connector-curvature="0" />
      <path
         id="path3499"
         d="m 303.33423,593.79006 20.60503,0"
         style="fill:none;stroke:#000000;stroke-width:1.10000002"
         inkscape:connector-curvature="0" />
      <path
         id="path3501"
         d="m 323.93925,593.79006 a 12.075561,12.075561 0 0 0 7.8792,-21.22638"
         style="fill:none;stroke:#000000;stroke-width:1.10000002"
         inkscape:connector-curvature="0" />
      <path
         id="path3503"
         d="m 331.44475,569.80223 a 2.100098,2.100098 0 0 0 0.3737,2.76144"
         style="fill:none;stroke:#000000;stroke-width:1.10000002"
         inkscape:connector-curvature="0" />
      <path
         id="path3505"
         d="m 330.23955,581.7145 a 6.300295,6.300295 0 1 0 -12.60059,0 6.300295,6.300295 0 0 0 12.60059,0 z"
         style="fill:none;stroke:#000000;stroke-width:1.10000002"
         inkscape:connector-curvature="0" />
      <path
         id="path3507"
         d="m 233.63506,483.00991 a 6.300295,6.300295 0 1 0 -12.60059,0 6.300295,6.300295 0 0 0 12.60059,0 z"
         style="fill:none;stroke:#000000;stroke-width:1.10000002"
         inkscape:connector-curvature="0" />
      <path
         id="path3509"
         d="m 233.63506,581.7145 a 6.300295,6.300295 0 1 0 -12.60059,0 6.300295,6.300295 0 0 0 12.60059,0 z"
         style="fill:none;stroke:#000000;stroke-width:1.10000002"
         inkscape:connector-curvature="0" />
      <path
         id="path3511"
         d="m 302.49492,470.75934 a 2.100098,2.100098 0 0 0 0.83931,0.17501"
         style="fill:none;stroke:#000000;stroke-width:1.10000002"
         inkscape:connector-curvature="0" />
    </g>
  </g>
</svg>
